<svg xmlns="http://www.w3.org/2000/svg" width="1536" height="1024" viewBox="0 0 1536 1024" role="img" aria-labelledby="title desc">
  <title id="title">CoreVideo Pro studio layout</title>
  <desc id="desc">Illustration of the CoreVideo Pro production console with scene list, program preview, participant roster, and Take/Record/Stream controls.</desc>
  <defs>
    <style>
      .bg{fill:#070914}.panel{fill:#10141d;stroke:#2b3345}.row{fill:#171c28}.row2{fill:#121722}.header{fill:#1a2030}.text{fill:#f7faff;font-family:Segoe UI,Arial,sans-serif}.muted{fill:#9daac2}.cyan{fill:#22e7e8}.blue{fill:#2aa8ff}.red{fill:#ff5c67}.label{font-size:22px;font-weight:700}.small{font-size:17px}.tiny{font-size:14px}.button{fill:#1c2333;stroke:#3a4358}.primary{fill:#22e7e8}.live{fill:#ff5c67}
    </style>
  </defs>
  <rect class="bg" width="1536" height="1024"/>

  <!-- Top bar -->
  <rect class="header" x="32" y="32" width="1472" height="64" rx="8"/>
  <circle class="cyan" cx="64" cy="64" r="14"/>
  <text class="text label" x="92" y="72">CoreVideo Pro</text>
  <text class="muted small" x="1180" y="72">Zoom Connected</text>
  <circle class="cyan" cx="1160" cy="64" r="7"/>

  <!-- Scene list -->
  <rect class="panel" x="32" y="112" width="260" height="660" rx="8"/>
  <text class="muted tiny" x="52" y="146">SCENES</text>
  <rect class="row" x="48" y="160" width="228" height="56" rx="6" stroke="#22e7e8"/>
  <text class="text small" x="64" y="194">1  Intro</text>
  <rect class="row2" x="48" y="224" width="228" height="56" rx="6"/>
  <text class="text small" x="64" y="258">2  Interview</text>
  <rect class="row" x="48" y="288" width="228" height="56" rx="6"/>
  <text class="text small" x="64" y="322">3  Speaker + Slides</text>
  <rect class="row2" x="48" y="352" width="228" height="56" rx="6"/>
  <text class="text small" x="64" y="386">4  Panel</text>
  <rect class="row" x="48" y="416" width="228" height="56" rx="6"/>
  <text class="text small" x="64" y="450">5  Closing</text>

  <!-- Program preview -->
  <rect class="panel" x="312" y="112" width="844" height="528" rx="8"/>
  <rect class="live" x="332" y="132" width="60" height="28" rx="4"/>
  <text class="text tiny" x="345" y="151">LIVE</text>
  <text class="muted small" x="1080" y="151">1080p60</text>
  <rect class="row" x="332" y="172" width="404" height="220" rx="6"/>
  <text class="text small" x="350" y="380">Sophia Martinez · HOST</text>
  <rect class="row2" x="744" y="172" width="392" height="220" rx="6"/>
  <text class="text small" x="762" y="380">David Chen · SPEAKER</text>
  <rect class="row" x="332" y="404" width="404" height="216" rx="6"/>
  <text class="text small" x="350" y="608">Jeremy Collins · PANELIST</text>
  <rect class="row2" x="744" y="404" width="392" height="216" rx="6"/>
  <text class="cyan small" x="762" y="436">Building what matters next</text>
  <text class="muted tiny" x="762" y="470">CoreVideo Pro</text>

  <!-- Participant roster -->
  <rect class="panel" x="1180" y="112" width="324" height="528" rx="8"/>
  <text class="muted tiny" x="1200" y="146">PARTICIPANTS (7)</text>
  <rect class="row" x="1196" y="160" width="292" height="64" rx="6" stroke="#22e7e8"/>
  <text class="text small" x="1212" y="186">David Chen</text>
  <text class="cyan tiny" x="1212" y="208">SPEAKER · Talking</text>
  <rect class="row2" x="1196" y="232" width="292" height="64" rx="6"/>
  <text class="text small" x="1212" y="258">Sophia Martinez</text>
  <text class="muted tiny" x="1212" y="280">HOST</text>
  <rect class="row" x="1196" y="304" width="292" height="64" rx="6"/>
  <text class="text small" x="1212" y="330">Jeremy Collins</text>
  <text class="muted tiny" x="1212" y="352">PANELIST</text>
  <rect class="row2" x="1196" y="376" width="292" height="64" rx="6"/>
  <text class="text small" x="1212" y="402">Ava Patel</text>
  <text class="muted tiny" x="1212" y="424">PANELIST</text>
  <rect class="row" x="1196" y="448" width="292" height="64" rx="6"/>
  <text class="text small" x="1212" y="474">Michael Thompson</text>
  <text class="muted tiny" x="1212" y="496">ATTENDEE</text>

  <!-- Caption bar -->
  <rect class="row2" x="332" y="660" width="1172" height="56" rx="6"/>
  <text class="muted small" x="352" y="694">"...thank you for being here." — CC</text>

  <!-- Bottom toolbar -->
  <rect class="panel" x="32" y="744" width="1472" height="120" rx="8"/>
  <rect class="button" x="56" y="772" width="220" height="64" rx="8" stroke="#22e7e8"/>
  <text class="cyan small" x="84" y="798">✨ Magic Scene</text>
  <text class="muted tiny" x="84" y="820">AI auto-direct</text>
  <rect class="button" x="296" y="772" width="240" height="64" rx="8"/>
  <text class="text small" x="324" y="798">Set &amp; Forget</text>
  <text class="cyan tiny" x="324" y="820">Automation On</text>
  <rect class="button" x="900" y="772" width="160" height="64" rx="8"/>
  <text class="text small" x="950" y="810">TAKE</text>
  <rect class="button" x="1076" y="772" width="180" height="64" rx="8" stroke="#ff5c67"/>
  <text class="text small" x="1110" y="810">RECORD</text>
  <rect class="button" x="1272" y="772" width="180" height="64" rx="8" stroke="#22e7e8"/>
  <text class="cyan small" x="1308" y="810">STREAM</text>

  <!-- Status row -->
  <rect class="row2" x="56" y="884" width="1452" height="100" rx="8"/>
  <text class="muted small" x="80" y="918">Program 1080p60 · Good</text>
  <text class="muted small" x="420" y="918">Stream 1080p60 · 6.0 Mbps · Good</text>
  <text class="muted small" x="780" y="918">Record 1080p60 · Good</text>
  <text class="muted small" x="1080" y="918">CPU 18%   Mem 42%   Drops 0 (0.0%)</text>
  <text class="muted small" x="80" y="954">Live 00:28:47</text>
</svg>
